# xmcd CD database file
#
# Track frame offsets:
#	150
#	11433
#	23340
#	35143
#	49509
#	63007
#	75750
#	88923
#	102401
#	112332
#	125587
#	137061
#	150995
#	163338
#	175780
#	189759
#	201852
#	211894
#	222991
#	233629
#	245952
#	258794
#	271921
#	281644
#	293484
#
# Disc length: 4065 seconds
#
# Revision: 5
# Processed by: cddbd v1.5.2PL0 Copyright (c) Steve Scherf et al.
# Submitted via: CDex 1.70
#
DISCID=570fdf19
DTITLE=Various and track dates - Boogie Woogie Goodies CD4
DYEAR=2005
DGENRE=R&B
TTITLE0=Wynonie Harris - Dig This Boogie (1946)
TTITLE1=Dick Davis - Screamin' Boogie (1947)
TTITLE2=Duke Henderson - Leona's Boogie (1947)
TTITLE3=Tina Dixon - Parrot Bar Boogie (1948)
TTITLE4=Roy Brown - Roy Brown Boogie (1947)
TTITLE5=Amos Milburn - Chicken Shack Boogie (1946)
TTITLE6=Jimmy Liggins - Nite Life Boogie (1947)
TTITLE7=Kitty Kaye and the Kats - Fishtruck Boogie (1953)
TTITLE8=T. J. Fowler - Fowler's Boogie (1952)
TTITLE9=Louis Jordan - Pine Top's Boogie (1941)
TTITLE10=Roosevelt Sykes - Blues 'n' Boogie (1950)
TTITLE11=Mabel Scott - Boogie Woogie Choo Choo Train (1951)
TTITLE12=Clarence Samuels - Boogie Woogie Blues (1947)
TTITLE13=Slim Gaillard - Slim Gaillard's Boogie (1946)
TTITLE14=Sticks McGhee - Housewarmin' Boogie (1951)
TTITLE15=Johnny Wicks - Jockey Jack Boogie (1952)
TTITLE16=Sarah "Fatwoman" Dean - I Got Your Boogie (1951)
TTITLE17=Billy Wright - Billy's Boogie Blues (-)
TTITLE18=Steve Gibson's Red Caps - Boogie Woogie on a Saturday Night (1951)
TTITLE19=Joe Liggins - Dripper's Boogie (1952)
TTITLE20=Clarence Brown - Pale Dry Boogie part1 (1951)
TTITLE21=Clarence Brown - Pale Dry Boogie part2 (1951)
TTITLE22=Sugar Chile Robinson - Bouncing Ball Boogie (1950)
TTITLE23=Sax Man Brown feat. Elmore James - Sax-Ony Boogie (1952)
TTITLE24=Eddie Mack - Shotgun Boogie (1951)
EXTD=Track dates provided (no date given for track 18! YEAR: 2005
EXTT0=
EXTT1=
EXTT2=
EXTT3=
EXTT4=
EXTT5=
EXTT6=
EXTT7=
EXTT8=
EXTT9=
EXTT10=
EXTT11=
EXTT12=
EXTT13=
EXTT14=
EXTT15=
EXTT16=
EXTT17=
EXTT18=
EXTT19=
EXTT20=
EXTT21=
EXTT22=
EXTT23=
EXTT24=
PLAYORDER=
